<mxfile host="app.diagrams.net" agent="Mozilla/5.0 (Windows NT 10.0; Win64; x64) AppleWebKit/537.36 (KHTML, like Gecko) Chrome/132.0.0.0 Safari/537.36 Edg/132.0.0.0" version="26.0.6">
  <diagram name="第 1 页" id="kmCkti6I_xHT6U8M_zpA">
    <mxGraphModel dx="815" dy="522" grid="1" gridSize="10" guides="1" tooltips="1" connect="1" arrows="1" fold="1" page="1" pageScale="1" pageWidth="827" pageHeight="1169" math="0" shadow="0">
      <root>
        <mxCell id="0" />
        <mxCell id="1" parent="0" />
        <mxCell id="kF6tL1YqMk5iLr6IDcJW-1" value="" style="rounded=0;whiteSpace=wrap;html=1;fillColor=none;" vertex="1" parent="1">
          <mxGeometry x="100" y="60" width="390" height="500" as="geometry" />
        </mxCell>
        <mxCell id="kF6tL1YqMk5iLr6IDcJW-2" value="&lt;font style=&quot;font-size: 18px;&quot;&gt;单个回合&lt;/font&gt;" style="text;html=1;align=center;verticalAlign=middle;whiteSpace=wrap;rounded=0;" vertex="1" parent="1">
          <mxGeometry x="100" y="60" width="80" height="30" as="geometry" />
        </mxCell>
        <mxCell id="kF6tL1YqMk5iLr6IDcJW-4" value="&lt;font style=&quot;font-size: 18px;&quot;&gt;给定当前环境&lt;/font&gt;" style="rounded=1;whiteSpace=wrap;html=1;" vertex="1" parent="1">
          <mxGeometry x="220" y="80" width="120" height="60" as="geometry" />
        </mxCell>
        <mxCell id="kF6tL1YqMk5iLr6IDcJW-5" value="&lt;span style=&quot;font-size: 18px;&quot;&gt;根据环境&lt;/span&gt;&lt;div&gt;&lt;span style=&quot;font-size: 18px;&quot;&gt;选择动作&lt;/span&gt;&lt;/div&gt;" style="rounded=1;whiteSpace=wrap;html=1;" vertex="1" parent="1">
          <mxGeometry x="220" y="160" width="120" height="60" as="geometry" />
        </mxCell>
        <mxCell id="kF6tL1YqMk5iLr6IDcJW-6" value="&lt;font style=&quot;font-size: 18px;&quot;&gt;更新环境&lt;/font&gt;" style="rounded=1;whiteSpace=wrap;html=1;" vertex="1" parent="1">
          <mxGeometry x="220" y="240" width="120" height="60" as="geometry" />
        </mxCell>
        <mxCell id="kF6tL1YqMk5iLr6IDcJW-8" value="&lt;font style=&quot;font-size: 18px;&quot;&gt;学习&lt;/font&gt;" style="rounded=1;whiteSpace=wrap;html=1;" vertex="1" parent="1">
          <mxGeometry x="220" y="320" width="120" height="60" as="geometry" />
        </mxCell>
      </root>
    </mxGraphModel>
  </diagram>
</mxfile>
